<svg xmlns="http://www.w3.org/2000/svg" xmlns:xlink="http://www.w3.org/1999/xlink" preserveAspectRatio="xMidYMid" width="18" height="11" viewBox="0 0 18 11">
  <defs>
    <style>
      .cls-1 {
        fill: #686868;
        fill-rule: evenodd;
      }
    </style>
  </defs>
  <path d="M12.171,7.298 C12.203,8.090 12.482,8.643 13.010,8.961 C13.327,9.159 13.714,9.257 14.166,9.257 C14.643,9.257 15.032,9.137 15.330,8.895 C15.493,8.766 15.637,8.584 15.762,8.354 L17.902,8.354 C17.847,8.822 17.589,9.296 17.125,9.779 C16.407,10.544 15.401,10.929 14.108,10.929 C13.039,10.929 12.098,10.605 11.282,9.959 C10.466,9.311 10.058,8.260 10.058,6.802 C10.058,5.436 10.426,4.389 11.162,3.661 C11.901,2.932 12.856,2.568 14.032,2.568 C14.730,2.568 15.359,2.691 15.919,2.937 C16.478,3.183 16.940,3.571 17.304,4.104 C17.633,4.573 17.845,5.115 17.944,5.733 C17.999,6.093 18.023,6.616 18.012,7.298 L12.171,7.298 ZM15.276,4.694 C14.943,4.409 14.528,4.267 14.032,4.267 C13.493,4.267 13.076,4.419 12.781,4.718 C12.483,5.018 12.297,5.424 12.222,5.938 L15.836,5.938 C15.797,5.391 15.610,4.976 15.276,4.694 ZM12.000,0.000 L16.000,0.000 L16.000,1.000 L12.000,1.000 L12.000,0.000 ZM8.757,6.068 C9.048,6.511 9.192,7.049 9.192,7.680 C9.192,8.333 9.028,8.918 8.695,9.435 C8.484,9.777 8.220,10.066 7.903,10.299 C7.546,10.569 7.124,10.752 6.638,10.851 C6.152,10.950 5.625,11.000 5.057,11.000 L0.013,11.000 L0.013,0.000 L5.422,0.000 C6.786,0.022 7.753,0.410 8.323,1.172 C8.666,1.639 8.836,2.200 8.836,2.851 C8.836,3.524 8.664,4.062 8.318,4.470 C8.125,4.700 7.841,4.908 7.465,5.097 C8.035,5.302 8.468,5.624 8.757,6.068 ZM6.002,2.082 C5.658,1.968 5.216,1.910 4.681,1.910 L2.595,1.910 L2.595,4.337 L4.966,4.337 C5.452,4.337 5.847,4.246 6.150,4.064 C6.453,3.882 6.604,3.560 6.604,3.097 C6.604,2.585 6.404,2.246 6.002,2.082 ZM6.120,6.345 C5.854,6.224 5.480,6.163 5.000,6.158 L2.595,6.158 L2.595,9.090 L4.963,9.090 C5.449,9.090 5.826,9.027 6.097,8.896 C6.587,8.657 6.833,8.200 6.833,7.523 C6.833,6.951 6.594,6.556 6.120,6.345 Z" class="cls-1"/>
</svg>
