<svg xmlns="http://www.w3.org/2000/svg" xmlns:xlink="http://www.w3.org/1999/xlink" preserveAspectRatio="xMidYMid" width="14.38" height="14.38" viewBox="0 0 14.38 14.38">
  <defs>
    <style>
      .cls-1 {
        fill: #686868;
        fill-rule: evenodd;
      }
    </style>
  </defs>
  <path d="M7.189,14.371 C3.225,14.371 -0.000,11.146 -0.000,7.182 C-0.000,3.218 3.225,-0.008 7.189,-0.008 C11.154,-0.008 14.379,3.218 14.379,7.182 C14.379,11.146 11.154,14.371 7.189,14.371 ZM13.252,8.166 C13.042,8.100 11.352,7.595 9.427,7.904 C10.231,10.111 10.557,11.908 10.620,12.282 C11.998,11.350 12.979,9.875 13.252,8.166 ZM9.588,12.844 C9.497,12.305 9.140,10.428 8.278,8.187 C8.264,8.192 8.251,8.196 8.238,8.201 C4.774,9.408 3.530,11.810 3.420,12.036 C4.461,12.848 5.770,13.332 7.189,13.332 C8.040,13.332 8.851,13.158 9.588,12.844 ZM2.627,11.297 C2.766,11.059 4.451,8.269 7.619,7.245 C7.699,7.219 7.779,7.195 7.861,7.172 C7.706,6.823 7.539,6.474 7.363,6.130 C4.296,7.048 1.320,7.009 1.051,7.004 C1.050,7.066 1.048,7.128 1.048,7.191 C1.048,8.769 1.646,10.209 2.627,11.297 ZM1.178,5.934 C1.453,5.937 3.983,5.948 6.855,5.185 C5.838,3.377 4.740,1.856 4.578,1.634 C2.861,2.444 1.576,4.028 1.178,5.934 ZM5.750,1.221 C5.920,1.448 7.035,2.967 8.041,4.816 C10.225,3.998 11.150,2.755 11.260,2.598 C10.176,1.636 8.750,1.051 7.189,1.051 C6.694,1.051 6.212,1.110 5.750,1.221 ZM11.943,3.308 C11.813,3.483 10.784,4.802 8.514,5.729 C8.657,6.022 8.794,6.319 8.921,6.619 C8.966,6.725 9.010,6.830 9.053,6.936 C11.097,6.679 13.127,7.090 13.329,7.133 C13.316,5.684 12.798,4.353 11.943,3.308 Z" class="cls-1"/>
</svg>
