<svg xmlns="http://www.w3.org/2000/svg" xmlns:xlink="http://www.w3.org/1999/xlink" preserveAspectRatio="xMidYMid" width="16" height="16" viewBox="0 0 16 16">
  <defs>
    <style>
      .cls-1 {
        fill: #9b9b9b;
        fill-rule: evenodd;
      }
    </style>
  </defs>
  <path d="M7.905,9.975 C6.719,9.975 5.757,9.013 5.757,7.826 C5.757,6.642 6.719,5.680 7.905,5.680 C9.093,5.680 10.055,6.642 10.055,7.826 C10.055,9.013 9.093,9.975 7.905,9.975 ZM16.000,9.000 L16.000,7.000 L14.395,7.000 C14.258,6.031 13.913,5.132 13.401,4.346 L14.417,3.236 L12.789,1.607 L11.614,2.574 C10.853,2.006 9.967,1.592 9.000,1.399 L9.000,0.000 L7.000,0.000 L7.000,1.352 C6.021,1.500 5.112,1.859 4.327,2.391 L3.236,1.393 L1.610,3.022 L2.586,4.395 C2.036,5.159 1.646,6.043 1.464,7.000 L0.000,7.000 L0.000,9.000 L1.440,9.000 C1.597,9.948 1.951,10.832 2.467,11.597 L1.395,12.572 L3.021,14.200 L4.475,13.146 C5.216,13.682 6.070,14.069 7.000,14.258 L7.000,16.000 L9.000,16.000 L9.000,14.493 C9.940,14.351 10.814,13.820 11.578,13.323 L12.574,14.414 L14.202,12.787 L13.160,11.537 C13.713,10.795 14.117,9.938 14.317,9.000 L16.000,9.000 Z" class="cls-1"/>
</svg>
