<svg xmlns="http://www.w3.org/2000/svg" xmlns:xlink="http://www.w3.org/1999/xlink" preserveAspectRatio="xMidYMid" width="13.687" height="11.09" viewBox="0 0 13.687 11.09">
  <defs>
    <style>
      .cls-1 {
        fill: #686868;
        fill-rule: evenodd;
      }
    </style>
  </defs>
  <path d="M13.672,1.335 C13.442,1.462 12.751,1.716 12.107,1.779 C12.520,1.556 13.132,0.827 13.283,0.247 C12.885,0.501 11.973,0.870 11.523,0.870 C11.523,0.870 11.523,0.871 11.524,0.872 C11.009,0.335 10.287,-0.000 9.484,-0.000 C7.927,-0.000 6.663,1.263 6.663,2.821 C6.663,3.037 6.689,3.247 6.736,3.449 L6.735,3.449 C4.622,3.395 2.152,2.336 0.760,0.523 C-0.095,2.004 0.645,3.649 1.615,4.249 C1.284,4.275 0.671,4.212 0.383,3.931 C0.363,4.914 0.837,6.216 2.559,6.687 C2.227,6.866 1.641,6.815 1.385,6.776 C1.475,7.607 2.637,8.692 3.906,8.692 C3.454,9.214 1.910,10.165 -0.000,9.862 C1.297,10.652 2.810,11.109 4.412,11.109 C8.962,11.109 12.496,7.421 12.306,2.872 C12.306,2.867 12.305,2.861 12.305,2.856 C12.305,2.844 12.306,2.831 12.306,2.821 C12.306,2.806 12.305,2.793 12.305,2.778 C12.719,2.496 13.274,1.995 13.672,1.335 Z" class="cls-1"/>
</svg>
