<svg xmlns="http://www.w3.org/2000/svg" xmlns:xlink="http://www.w3.org/1999/xlink" preserveAspectRatio="xMidYMid" width="16" height="15" viewBox="0 0 16 15">
  <defs>
    <style>
      .cls-1 {
        fill: #9b9b9b;
        fill-rule: evenodd;
      }
    </style>
  </defs>
  <path d="M14.000,11.250 C13.020,10.759 11.600,9.581 9.480,9.189 C10.000,8.560 10.420,7.579 10.860,6.440 C11.080,5.753 11.040,5.183 11.040,4.378 C11.040,3.770 11.160,2.827 11.000,2.278 C10.540,0.491 9.360,0.000 7.980,0.000 C6.580,0.000 5.400,0.491 4.940,2.278 C4.800,2.827 4.900,3.789 4.900,4.378 C4.900,5.183 4.860,5.753 5.120,6.440 C5.540,7.579 5.940,8.580 6.480,9.189 C4.380,9.601 2.940,10.779 2.000,11.250 C0.000,12.193 0.000,13.233 0.000,13.233 L0.000,13.626 C0.000,14.313 0.740,15.000 1.460,15.000 L14.520,15.000 C15.440,15.000 16.000,14.254 16.000,13.567 L16.000,13.233 C16.000,13.233 15.980,12.193 14.000,11.250 Z" class="cls-1"/>
</svg>
