<svg xmlns="http://www.w3.org/2000/svg" xmlns:xlink="http://www.w3.org/1999/xlink" preserveAspectRatio="xMidYMid" width="13" height="12" viewBox="0 0 13 12">
  <defs>
    <style>
      .cls-1 {
        fill: #686868;
        fill-rule: evenodd;
      }
    </style>
  </defs>
  <path d="M0.002,3.263 L0.530,3.996 C0.530,3.996 1.619,3.088 1.982,3.542 C2.344,3.996 3.729,9.481 4.192,10.493 C4.595,11.380 5.709,12.553 6.929,11.716 C8.149,10.878 12.207,7.210 12.933,2.878 C13.659,-1.452 8.051,-0.545 7.456,3.228 C8.941,2.284 9.734,3.612 8.974,5.114 C8.216,6.616 7.523,7.595 7.160,7.595 C6.798,7.595 6.519,6.590 6.104,4.834 C5.675,3.019 5.678,-0.252 3.894,0.119 C2.213,0.469 0.002,3.263 0.002,3.263 Z" class="cls-1"/>
</svg>
